<?xml version="1.0" encoding="utf-8"?>
<!-- Generator: Adobe Illustrator 25.1.0, SVG Export Plug-In . SVG Version: 6.00 Build 0)  -->
<svg version="1.1" xmlns="http://www.w3.org/2000/svg" xmlns:xlink="http://www.w3.org/1999/xlink" x="0px" y="0px"
	 viewBox="0 0 1366 768" style="enable-background:new 0 0 1366 768;" xml:space="preserve">
<style type="text/css">
	.st0{display:none;}
	.st1{display:inline;opacity:0.43;}
	.st2{fill:#FFFFFF;}
	.st3{display:inline;opacity:0.43;fill:#FFFFFF;stroke:#000000;stroke-miterlimit:10;}
	.st4{display:inline;opacity:0.43;fill:none;stroke:#000000;stroke-miterlimit:10;}
	.st5{display:inline;}
	.st6{display:inline;fill:none;stroke:#000000;stroke-miterlimit:10;}
	.st7{stroke:#000000;stroke-miterlimit:10;}
	.st8{fill:#FFE9D0;stroke:#000000;stroke-miterlimit:10;}
	.st9{fill:none;stroke:#000000;stroke-miterlimit:10;}
	.st10{fill:#FFE9D0;stroke:#FFE9D0;stroke-miterlimit:10;}
	.st11{display:none;fill:none;stroke:#0000FF;stroke-miterlimit:10;}
	.st12{fill:none;stroke:#0000FF;stroke-miterlimit:10;}
	.st13{fill:#8889C1;stroke:#8889C1;stroke-miterlimit:10;}
	.st14{fill:#8889C1;stroke:#111E4B;stroke-miterlimit:10;}
	.st15{fill:none;stroke:#111E4B;stroke-miterlimit:10;}
	.st16{fill:#E1F9F9;stroke:#111E4B;stroke-miterlimit:10;}
	.st17{fill:#FFE9D0;stroke:#111E4B;stroke-miterlimit:10;}
	.st18{fill:#FFFFFF;stroke:#FFFFFF;stroke-miterlimit:10;}
	.st19{fill:#111E4B;}
	.st20{fill:#8889C1;}
	.st21{font-family:'KristenITC-Regular';}
	.st22{font-size:60px;}
	.st23{fill:#FFE9D0;}
</style>
<g id="Layer_1" class="st0">
	<g class="st1">
		<path class="st2" d="M568.19,546.89c-6.34,0-11.5-5.16-11.5-11.5V407.5c0-6.34,5.16-11.5,11.5-11.5H803
			c6.34,0,11.5,5.16,11.5,11.5v127.89c0,6.34-5.16,11.5-11.5,11.5H568.19z"/>
		<path d="M803,396.5c6.07,0,11,4.93,11,11v127.89c0,6.07-4.93,11-11,11H568.19c-6.07,0-11-4.93-11-11V407.5c0-6.07,4.93-11,11-11
			H803 M803,395.5H568.19c-6.6,0-12,5.4-12,12v127.89c0,6.6,5.4,12,12,12H803c6.6,0,12-5.4,12-12V407.5
			C815,400.9,809.6,395.5,803,395.5L803,395.5z"/>
	</g>
	<g class="st1">
		<ellipse class="st2" cx="681.95" cy="247.87" rx="63.29" ry="69.37"/>
		<path d="M681.95,179c34.62,0,62.79,30.89,62.79,68.87s-28.17,68.87-62.79,68.87s-62.79-30.89-62.79-68.87S647.32,179,681.95,179
			 M681.95,178c-35.23,0-63.79,31.28-63.79,69.87s28.56,69.87,63.79,69.87c35.23,0,63.79-31.28,63.79-69.87S717.18,178,681.95,178
			L681.95,178z"/>
	</g>
	<g class="st1">
		<path d="M611.47,236.11c4.47,0,8.11,6.09,8.11,13.58c0,7.49-3.64,13.58-8.11,13.58s-8.11-6.09-8.11-13.58
			C603.36,242.2,607,236.11,611.47,236.11 M611.47,235.11c-5.03,0-9.11,6.53-9.11,14.58c0,8.05,4.08,14.58,9.11,14.58
			s9.11-6.53,9.11-14.58C620.59,241.64,616.51,235.11,611.47,235.11L611.47,235.11z"/>
	</g>
	<g class="st1">
		<path d="M753.64,236.11c4.47,0,8.11,6.09,8.11,13.58c0,7.49-3.64,13.58-8.11,13.58s-8.11-6.09-8.11-13.58
			C745.52,242.2,749.16,236.11,753.64,236.11 M753.64,235.11c-5.03,0-9.11,6.53-9.11,14.58c0,8.05,4.08,14.58,9.11,14.58
			c5.03,0,9.11-6.53,9.11-14.58C762.75,241.64,758.67,235.11,753.64,235.11L753.64,235.11z"/>
	</g>
	<g class="st1">
		<path d="M681.22,279.63l32.16,55.33h-64.33L681.22,279.63 M681.22,277.64l-33.9,58.32h67.8L681.22,277.64L681.22,277.64z"/>
	</g>
	<g class="st1">
		<path d="M763,327.24c28.12,0,51,22.88,51,51v22.37c0,28.12-22.88,51-51,51H605.76c-28.12,0-51-22.88-51-51v-22.37
			c0-28.12,22.88-51,51-51H763 M763,326.24H605.76c-28.72,0-52,23.28-52,52v22.37c0,28.72,23.28,52,52,52H763
			c28.72,0,52-23.28,52-52v-22.37C815,349.52,791.72,326.24,763,326.24L763,326.24z"/>
	</g>
	<ellipse class="st3" cx="500.29" cy="518.22" rx="16.4" ry="26.12"/>
	
		<ellipse transform="matrix(0.5714 -0.8207 0.8207 0.5714 -182.6524 635.0411)" class="st4" cx="516.66" cy="492.39" rx="23.09" ry="16.4"/>
	<path class="st4" d="M520.02,468.27l19.02,9.56c5.9,2.96,13.15,0.56,16.11-5.33l58.13-115.67c2.96-5.9,0.56-13.15-5.33-16.11
		l-19.02-9.56c-5.9-2.96-13.15-0.56-16.11,5.33l-58.13,115.68C511.72,458.06,514.13,465.31,520.02,468.27z"/>
	<path class="st4" d="M530.21,556.5h-58.63c-6.6,0-12-5.4-12-12v-48.91c0-6.6,5.4-12,12-12h58.63c6.6,0,12,5.4,12,12v48.91
		C542.21,551.1,536.81,556.5,530.21,556.5z"/>
	<path class="st4" d="M774.9,481.91l21.21-1.69c6.58-0.52,11.53-6.33,11.01-12.91l-10.26-129.05c-0.52-6.58-6.33-11.53-12.91-11.01
		l-21.21,1.69c-6.58,0.52-11.53,6.33-11.01,12.91l10.26,129.05C762.51,477.47,768.32,482.43,774.9,481.91z"/>
	<ellipse class="st4" cx="680.5" cy="298.5" rx="96" ry="144"/>
	
		<ellipse transform="matrix(0.6282 -0.7781 0.7781 0.6282 110.229 620.3109)" class="st4" cx="704.12" cy="194.83" rx="28.41" ry="57"/>
	<ellipse transform="matrix(0.449 -0.8935 0.8935 0.449 166.0919 681.3444)" class="st4" cx="635.5" cy="206" rx="50.5" ry="12"/>
	<path class="st4" d="M620.5,272c0,30.1,1.34,54.5,3,54.5s1-26.9,1-57s0.66-52-1-52S620.5,241.9,620.5,272z"/>
	<path class="st4" d="M741.34,271.73c0,30.1,1.08,54.5,2.42,54.5s0.81-26.9,0.81-57s0.53-52-0.81-52S741.34,241.63,741.34,271.73z"
		/>
</g>
<g id="Layer_2" class="st0">
	<g class="st5">
		<path d="M754.47,249.33c4.47,0,8.11,6.09,8.11,13.58c0,7.49-3.64,13.58-8.11,13.58s-8.11-6.09-8.11-13.58
			C746.36,255.42,749.99,249.33,754.47,249.33 M754.47,248.33c-5.03,0-9.11,6.53-9.11,14.58c0,8.05,4.08,14.58,9.11,14.58
			c5.03,0,9.11-6.53,9.11-14.58C763.58,254.86,759.5,248.33,754.47,248.33L754.47,248.33z"/>
	</g>
	<path class="st6" d="M744.68,206c3.18,3.5,6.82,18.5,8.96,27.61c2.14,9.11,0,24.61,0,24.61s-5.14-2.72-25.14-13.72
		c-7.25-3.99-22.74-12.93-37.83-24.19c-17.17-12.81-32.99-37.08-32.99-37.08s-10.81,30.7-20,43.48s-13.06,17.74-13.06,17.74"/>
	<path class="st6" d="M741.34,240.9c0,0,0.16,70.6,0,85.34c-0.48,45.57,2.13,10.59,3.17-6.3c0.01-0.16,0.01-0.3,0.02-0.46
		c0.03-4.42,0.48-71.24,1.21-75.53"/>
	<path class="st6" d="M624.5,276.5c0,0,5,16,19.4,27.45c9.75,7.75,16.4,9.66,16.4,9.66l-7.81,12.89l29.45,20.42l28.1-19.69
		l-7.65-13.17c-1.45,1.02,14.71-5.71,23.51-15.57c11.6-13,14.17-22.42,14.95-25.48l0.65-2.52"/>
	<path class="st6" d="M710.05,327.24h44.54c0,0,18.92,0.2,24.84,0.72c6.08,0.54,15.08,3.54,17.74,14.03
		c0.62,2.45,11.26,54.81,11.26,54.81"/>
	<path class="st6" d="M652.97,326.23c0,0-62.47-5.73-68.47,4.54c-2.13,3.64-69.28,122.08-69.28,122.08
		c-1.51,3.08-1.79,6.67-0.55,9.86c0.36,0.93,0.82,1.77,1.42,2.37c2.4,2.41,13.75,8.36,13.75,8.36s12.67,7.84,16.66,5.45
		c3.99-2.39,7.36-5.54,9.68-8.47"/>
	<path class="st6" d="M519.5,467.5c0,0-18.42,18.2-19.21,24.6c-0.79,6.4-3.21,15.52,0,15.96c3.21,0.44,4.21-12.56,4.21-12.56
		l-1.17,11.72c-0.4,4.02,3.2,7.28,7.16,6.5c1.48-0.29,13.56-8.36,18.59-12.57c1.92-1.6,3.32-3.72,4.03-6.11l5.26-17.48"/>
	<g class="st5">
		<path d="M611.47,248.33c4.47,0,8.11,6.09,8.11,13.58s-3.64,13.58-8.11,13.58s-8.11-6.09-8.11-13.58S606.99,248.33,611.47,248.33
			 M611.47,247.33c-5.03,0-9.11,6.53-9.11,14.58c0,8.05,4.08,14.58,9.11,14.58c5.03,0,9.11-6.53,9.11-14.58
			C620.58,253.86,616.5,247.33,611.47,247.33L611.47,247.33z"/>
	</g>
	<g class="st5">
		<path d="M802.43,396.73c6.07,0,11,4.93,11,11v127.89c0,6.07-4.93,11-11,11H567.62c-6.07,0-11-4.93-11-11V407.73
			c0-6.07,4.93-11,11-11H802.43 M802.43,395.73H567.62c-6.6,0-12,5.4-12,12v127.89c0,6.6,5.4,12,12,12h234.81c6.6,0,12-5.4,12-12
			V407.73C814.43,401.13,809.03,395.73,802.43,395.73L802.43,395.73z"/>
	</g>
	<ellipse class="st6" cx="500.94" cy="518.72" rx="16.4" ry="26.12"/>
	<path class="st6" d="M530.25,556.17h-58.63c-6.6,0-12-5.4-12-12v-48.91c0-6.6,5.4-12,12-12h58.63c6.6,0,12,5.4,12,12v48.91
		C542.25,550.77,536.85,556.17,530.25,556.17z"/>
	<path class="st6" d="M593.5,396.5c0,0,10.63-21.65,13.82-27.83c3.18-6.17,5.74-11.54,5.96-11.86"/>
	<line class="st6" x1="602.61" y1="377.97" x2="622.56" y2="369.56"/>
	<line class="st6" x1="752.45" y1="351.01" x2="759.24" y2="395.73"/>
	<line class="st6" x1="743.51" y1="361.71" x2="755.85" y2="373.76"/>
	<ellipse class="st6" cx="680.5" cy="494" rx="4" ry="14.5"/>
	<ellipse class="st6" cx="680.5" cy="456" rx="4" ry="14.5"/>
	<ellipse class="st6" cx="701" cy="475.5" rx="14.5" ry="4"/>
	<ellipse class="st6" cx="660" cy="475.5" rx="14.5" ry="4"/>
	<path class="st6" d="M731.25,191.25L731.25,191.25c-1.19-0.69-2.73-0.28-3.42,0.92l-18,31.18c-0.69,1.19-0.28,2.73,0.92,3.42l0,0
		c1.19,0.69,2.73,0.28,3.42-0.92l18-31.18C732.85,193.47,732.44,191.93,731.25,191.25z"/>
	<path class="st6" d="M740.81,196.83L740.81,196.83c-1.19-0.69-2.73-0.28-3.42,0.92l-18,31.18c-0.69,1.19-0.28,2.73,0.92,3.42l0,0
		c1.19,0.69,2.73,0.28,3.42-0.92l18-31.18C742.41,199.05,742,197.52,740.81,196.83z"/>
	<path class="st6" d="M786.5,271c0,18.12,4.96,53.03-1,68.5c-16.31,42.31-60.65,54-102.5,54c-41.93,0-87.23-8.58-103.5-51
		c-5.91-15.42,0-53.47,0-71.5c0-67.65,46.34-122.5,103.5-122.5S786.5,203.35,786.5,271z"/>
	<path class="st6" d="M504.29,511.12"/>
	<line class="st6" x1="485.06" y1="525.3" x2="516.81" y2="525.3"/>
	<line class="st6" x1="500.94" y1="525.3" x2="500.94" y2="544.85"/>
	<path class="st6" d="M625.5,236.5c-1.56-0.55-1.02,72.82-0.08,87.78c2.87,45.48-2.03,10.61-3.23-6.27
		c-0.01-0.16-0.02-0.3-0.02-0.46c-0.07-4.42-1.9-76.76-2.67-81.05"/>
</g>
<g id="skin_and_hair">
	<path class="st7" d="M786.5,271c0,18.12,4.96,53.03-1,68.5c-16.31,42.31-60.65,54-102.5,54c-41.93,0-87.23-8.58-103.5-51
		c-5.91-15.42,0-53.47,0-71.5c0-67.65,46.34-122.5,103.5-122.5S786.5,203.35,786.5,271z"/>
	<ellipse class="st8" cx="753.47" cy="261.91" rx="9.11" ry="14.58"/>
	<path class="st8" d="M624.5,276.5c0,0,5,16,19.4,27.45c9.75,7.75,16.4,9.66,16.4,9.66l-7.81,12.89l29.45,20.42l28.1-19.69
		l-7.65-13.17c-1.45,1.02,14.71-5.71,23.51-15.57c11.6-13,14.17-22.42,14.95-25.48l0.65-2.52"/>
	<path class="st9" d="M710.05,327.24h44.54c0,0,18.92,0.2,24.84,0.72c6.08,0.54,15.08,3.54,17.74,14.03
		c0.62,2.45,11.26,54.81,11.26,54.81"/>
	<path class="st9" d="M652.97,326.23c0,0-62.47-5.73-68.47,4.54c-2.13,3.64-69.28,122.08-69.28,122.08
		c-1.51,3.08-1.79,6.67-0.55,9.86c0.36,0.93,0.82,1.77,1.42,2.37c2.4,2.41,13.75,8.36,13.75,8.36s12.67,7.84,16.66,5.45
		c3.99-2.39,7.36-5.54,9.68-8.47"/>
	<path class="st8" d="M519.5,467.5c0,0-18.42,18.2-19.21,24.6c-0.79,6.4-3.21,15.52,0,15.96c3.21,0.44,4.21-12.56,4.21-12.56
		l-1.17,11.72c-0.4,4.02,3.2,7.28,7.16,6.5c1.48-0.29,13.56-8.36,18.59-12.57c1.92-1.6,3.32-3.72,4.03-6.11l5.26-17.48"/>
	<ellipse class="st8" cx="611.47" cy="261.91" rx="9.11" ry="14.58"/>
	<path class="st9" d="M593.5,396.5c0,0,10.63-21.65,13.82-27.83c3.18-6.17,5.74-11.54,5.96-11.86"/>
	<line class="st9" x1="602.61" y1="377.97" x2="622.56" y2="369.56"/>
	<line class="st9" x1="752.45" y1="351.01" x2="759.24" y2="395.73"/>
	<line class="st9" x1="743.51" y1="361.71" x2="755.85" y2="373.76"/>
	<path class="st9" d="M504.29,511.12"/>
	<path class="st10" d="M637.5,282.5l-14-8l-1-39l-11-24l61-24l62,42c9.07,11.02,10.15,62.97-5,47
		C728.12,275.05,637.5,282.5,637.5,282.5z"/>
	<path class="st11" d="M744.68,206c3.18,3.5,6.82,18.5,8.96,27.61c2.14,9.11,0,24.61,0,24.61s-5.14-2.72-25.14-13.72
		c-7.25-3.99-22.74-12.93-37.83-24.19c-17.17-12.81-32.99-37.08-32.99-37.08s-10.81,30.7-20,43.48s-13.06,17.74-13.06,17.74"/>
	<path d="M741.34,240.9c0,0,0.16,70.6,0,85.34c-0.48,45.57,2.13,10.59,3.17-6.3c0.01-0.16,0.01-0.3,0.02-0.46
		c0.03-4.42,0.48-71.24,1.21-75.53"/>
	<path class="st7" d="M625.5,236.5c-1.56-0.55-1.02,72.82-0.08,87.78c2.87,45.48-2.03,10.61-3.23-6.27
		c-0.01-0.16-0.02-0.3-0.02-0.46c-0.07-4.42-1.9-76.76-2.67-81.05"/>
	<path class="st12" d="M624.63,244.45"/>
	<path d="M670.5,180.5c-2.9,6.32-6.51,13.08-11,20c-14.01,21.59-30.89,35.93-44,45l-5-43L670.5,180.5z"/>
	<path class="st7" d="M655.5,179.5c23.02,31.11,55.05,62.14,99,81c3.35,1.44,6.68,2.77,10,4"/>
	<polyline class="st7" points="762.58,264.5 754.59,216.9 656.24,180.5 	"/>
	<path class="st13" d="M731.25,191.25L731.25,191.25c-1.19-0.69-2.73-0.28-3.42,0.92l-18,31.18c-0.69,1.19-0.28,2.73,0.92,3.42l0,0
		c1.19,0.69,2.73,0.28,3.42-0.92l18-31.18C732.85,193.47,732.44,191.93,731.25,191.25z"/>
	<path class="st13" d="M740.81,196.83L740.81,196.83c-1.19-0.69-2.73-0.28-3.42,0.92l-18,31.18c-0.69,1.19-0.28,2.73,0.92,3.42l0,0
		c1.19,0.69,2.73,0.28,3.42-0.92l18-31.18C742.41,199.05,742,197.52,740.81,196.83z"/>
</g>
<g id="clotes">
	<path class="st14" d="M808.5,397.5c0,0-10.72-53.05-11.34-55.5c-2.66-10.5-11.66-13.5-17.74-14.03
		c-5.92-0.53-24.84-0.72-24.84-0.72h-44.54"/>
	<path class="st9" d="M643.9,303.95c9.75,7.75,16.4,9.66,16.4,9.66l-7.81,12.89l29.45,20.42l28.1-19.69l-7.65-13.17
		c-1.45,1.02,14.71-5.71,23.51-15.57"/>
	<path class="st9" d="M519.5,467.5c0,0-18.42,18.2-19.21,24.6c-0.79,6.4-3.21,15.52,0,15.96c3.21,0.44,4.21-12.56,4.21-12.56
		l-1.17,11.72c-0.4,4.02,3.2,7.28,7.16,6.5c1.48-0.29,13.56-8.36,18.59-12.57c1.92-1.6,3.32-3.72,4.03-6.11l5.26-17.48"/>
	<path class="st9" d="M504.29,511.12"/>
	<polygon class="st13" points="636.5,414.5 581.5,404.5 612.59,339.33 652.5,326.5 681.5,346.5 709.5,327.5 787.19,376.66 
		805.5,391.5 808.42,401.99 	"/>
	<path class="st14" d="M652.97,326.23c0,0-62.47-5.73-68.47,4.54c-2.13,3.64-69.28,122.08-69.28,122.08
		c-1.51,3.08-1.79,6.67-0.55,9.86c0.36,0.93,0.82,1.77,1.42,2.37c2.4,2.41,13.75,8.36,13.75,8.36s12.67,7.84,16.66,5.45
		c3.99-2.39,7.36-5.54,9.68-8.47"/>
	<path class="st15" d="M593.5,396.5c0,0,10.63-21.65,13.82-27.83c3.18-6.17,5.74-11.54,5.96-11.86"/>
	<line class="st15" x1="602.61" y1="377.97" x2="622.56" y2="369.56"/>
	<line class="st15" x1="752.45" y1="351.01" x2="759.24" y2="395.73"/>
	<line class="st15" x1="743.51" y1="362" x2="756.5" y2="379.5"/>
</g>
<g id="laptop">
	<ellipse class="st13" cx="682.5" cy="498" rx="4" ry="14.5"/>
	<ellipse class="st13" cx="682.5" cy="460" rx="4" ry="14.5"/>
	<path class="st7" d="M625.42,239.88c-1.56-0.55-1.02,72.82-0.08,87.78c2.87,45.48-2.03,10.61-3.23-6.27
		c-0.01-0.16-0.02-0.3-0.02-0.46c-0.07-4.42-1.9-76.76-2.67-81.05"/>
	<ellipse class="st13" cx="703" cy="479.5" rx="14.5" ry="4"/>
	<polyline class="st15" points="652.97,326.23 681.01,346.16 709.5,326.5 	"/>
	<ellipse class="st13" cx="662" cy="479.5" rx="14.5" ry="4"/>
	<line class="st16" x1="500.94" y1="525.3" x2="500.94" y2="544.85"/>
	<path class="st17" d="M519.5,467.5c0,0-18.42,18.2-19.21,24.6c-0.79,6.4-3.21,15.52,0,15.96c3.21,0.44,4.21-12.56,4.21-12.56
		l-1.17,11.72c-0.4,4.02,3.2,7.28,7.16,6.5c1.48-0.29,13.56-8.36,18.59-12.57c1.92-1.6,3.32-3.72,4.03-6.11l5.26-17.48"/>
	<path d="M741.26,245.05c0,0,0.16,70.6,0,85.34c-0.48,45.57,2.13,10.59,3.17-6.3c0.01-0.16,0.01-0.3,0.02-0.46
		c0.03-4.42,0.48-71.24,1.21-75.53"/>
</g>
<g id="board">
	<ellipse class="st7" cx="653" cy="254.5" rx="7.5" ry="10"/>
	<ellipse class="st18" cx="652.84" cy="254.69" rx="3.14" ry="4.19"/>
	<ellipse class="st7" cx="709.28" cy="254.1" rx="7.5" ry="10"/>
	<ellipse class="st18" cx="709.11" cy="254.29" rx="3.14" ry="4.19"/>
	<path class="st9" d="M659.5,288.5c0.89,1.28,8.05,11.22,21,12c9.92,0.59,19.49-4.41,25-13"/>
	<g>
		<polygon class="st2" points="497.88,615.53 488.99,378.49 833.37,375.95 813.62,622.91 		"/>
		<path class="st19" d="M831.75,377.46l-19.51,243.91l-312.91-7.31l-8.78-234.09L831.75,377.46 M835,374.44L487.43,377l9,240
			L815,624.44L835,374.44L835,374.44z"/>
	</g>
	<text transform="matrix(1 0 0 1 572.8101 486.9492)"><tspan x="0" y="0" class="st20 st21 st22">Know</tspan><tspan x="0" y="72" class="st20 st21 st22">Me !!!!</tspan></text>
	<polygon class="st20" points="534.22,428.42 531.03,420.79 522.95,419.09 529.22,413.71 528.34,405.49 535.39,409.79 
		542.93,406.42 541.03,414.45 546.57,420.58 538.33,421.25 	"/>
	<polygon class="st20" points="789.68,437.52 780.37,435.44 773.38,441.92 772.48,432.42 764.15,427.78 772.91,423.99 
		774.75,414.63 781.06,421.79 790.53,420.65 785.67,428.86 	"/>
	<polygon class="st20" points="567.75,601.02 557.97,597.89 550.42,604.84 549.72,593.8 541.04,587.78 550.38,584.08 552.57,573.41 
		559.05,582.17 569.08,581.59 563.74,590.7 	"/>
	<polygon class="st20" points="789.43,576.94 782.63,574.79 777,579.17 776.94,572.04 771.03,568.04 777.8,565.78 779.78,558.93 
		784.02,564.66 791.15,564.42 787,570.23 	"/>
	<polygon class="st20" points="560.01,498.56 552.89,497.78 547.87,502.88 546.82,496.24 540.34,493.57 546.8,490.25 547.81,483.51 
		552.86,488.09 559.97,486.59 556.63,492.74 	"/>
	<polygon class="st20" points="775.19,489.03 771.22,487.26 767.52,489.54 767.96,485.22 764.66,482.4 768.91,481.49 770.56,477.47 
		772.74,481.23 777.07,481.57 774.17,484.8 	"/>
	<polygon class="st20" points="675.05,428.61 669.66,421.18 660.5,421.41 665.89,414 662.84,405.35 671.56,408.19 678.84,402.61 
		678.84,411.78 686.39,416.99 677.67,419.82 	"/>
	<polygon class="st20" points="704.66,593.16 699.53,593.42 697.02,597.9 694.98,592.97 689.93,591.72 693.79,588.42 693.18,583.17 
		697.62,586.05 702.29,584.06 701.16,589.14 	"/>
	<polygon class="st20" points="500.67,228.11 482.52,230.94 474.96,247.69 466.19,231.08 447.85,228.56 460.58,215.47 456.8,197.16 
		473.44,205.68 489.45,196.89 487,215.24 	"/>
	<polygon class="st20" points="547.78,289.5 538.31,289.12 533.24,297.13 529.97,287.52 520.79,284.32 528.24,278.76 527.64,268.78 
		535.51,274.95 544.32,271.98 541.73,281.35 	"/>
	<polygon class="st20" points="605.97,130.06 591.02,121.48 575.47,128.93 579.01,112.05 567.12,99.56 584.26,97.72 592.46,82.55 
		599.52,98.29 616.48,101.4 603.69,112.97 	"/>
	<polygon class="st20" points="563.52,187.65 556.09,182.65 547.77,185.94 550.22,177.33 544.52,170.43 553.47,170.1 558.28,162.55 
		561.35,170.96 570.02,173.19 562.97,178.72 	"/>
	<polygon class="st20" points="563.14,45.35 557.29,46.5 554.92,51.97 552.02,46.77 546.08,46.2 550.14,41.83 548.84,36.01 
		554.25,38.52 559.38,35.49 558.67,41.41 	"/>
	<polygon class="st20" points="706.88,116.3 688.45,98.63 663.44,103.8 674.55,80.81 661.91,58.62 687.21,62.08 704.4,43.2 
		708.93,68.33 732.2,78.85 709.69,90.92 	"/>
	<polygon class="st20" points="804.33,133.51 791.97,130.71 782.66,139.31 781.5,126.7 770.45,120.5 782.09,115.5 784.56,103.07 
		792.92,112.59 805.5,111.11 799.03,122 	"/>
	<polygon class="st20" points="798.15,54.89 805.28,48.77 804.27,39.42 812.3,44.31 820.88,40.46 818.72,49.61 825.02,56.58 
		815.65,57.34 810.98,65.5 807.35,56.82 	"/>
	<polygon class="st20" points="839.44,231.38 828.11,211 804.79,211.38 820.79,191.3 815.76,167.64 836.99,175.62 857.2,160.62 
		854.31,185.62 871.84,200.01 848.83,207.49 	"/>
	<polygon class="st20" points="910.29,286.8 906.04,281.3 899.1,281.68 903.01,275.94 900.5,269.46 907.18,271.41 912.56,267.02 
		912.77,273.97 918.61,277.73 912.07,280.08 	"/>
	<polygon class="st20" points="917.99,218.09 918.84,210.51 913.06,205.51 920.54,203.97 923.51,196.93 927.29,203.57 
		934.89,204.22 929.75,209.86 931.48,217.3 924.53,214.15 	"/>
	<polygon class="st20" points="891.46,136.96 885.34,109.44 859.2,98.88 883.48,84.55 885.44,56.43 906.57,75.09 933.93,68.27 
		922.7,94.13 937.64,118.04 909.58,115.36 	"/>
	<polygon class="st20" points="915.93,400.68 899.52,396.89 887.08,408.26 885.62,391.48 870.96,383.16 886.47,376.58 
		889.84,360.07 900.9,372.79 917.64,370.9 908.96,385.34 	"/>
	<polygon class="st20" points="866.67,316.53 858.84,315.93 853.91,322.04 852.06,314.4 844.73,311.6 851.41,307.48 851.82,299.64 
		857.8,304.73 865.38,302.69 862.39,309.95 	"/>
	<polygon class="st20" points="404.82,281.61 389.88,279.24 379.45,290.21 377.09,275.27 363.44,268.74 376.92,261.88 378.9,246.88 
		389.6,257.57 404.48,254.83 397.61,268.31 	"/>
	<polygon class="st20" points="475.92,365.2 458.92,360.44 445.36,371.74 444.64,354.1 429.7,344.7 446.25,338.56 450.57,321.45 
		461.52,335.29 479.14,334.11 469.36,348.81 	"/>
	<polygon class="st20" points="482.23,162.45 451.3,143.69 418.31,158.53 426.6,123.32 402.29,96.53 438.34,93.52 456.31,62.13 
		470.3,95.49 505.71,102.87 478.31,126.49 	"/>
</g>
<g id="hands_and_signs">
	<g>
		<ellipse class="st23" cx="826.5" cy="463.5" rx="15" ry="24"/>
		<path class="st19" d="M826.5,440c8,0,14.5,10.54,14.5,23.5s-6.5,23.5-14.5,23.5S812,476.46,812,463.5S818.5,440,826.5,440
			 M826.5,439c-8.56,0-15.5,10.97-15.5,24.5s6.94,24.5,15.5,24.5s15.5-10.97,15.5-24.5S835.06,439,826.5,439L826.5,439z"/>
	</g>
	<g>
		<ellipse class="st23" cx="494.5" cy="463.5" rx="15" ry="24"/>
		<path class="st19" d="M494.5,440c8,0,14.5,10.54,14.5,23.5s-6.5,23.5-14.5,23.5S480,476.46,480,463.5S486.5,440,494.5,440
			 M494.5,439c-8.56,0-15.5,10.97-15.5,24.5s6.94,24.5,15.5,24.5s15.5-10.97,15.5-24.5S503.06,439,494.5,439L494.5,439z"/>
	</g>
</g>
</svg>
