<?xml version="1.0" encoding="utf-8"?>
<!-- Generator: Adobe Illustrator 25.1.0, SVG Export Plug-In . SVG Version: 6.00 Build 0)  -->
<svg version="1.1" xmlns="http://www.w3.org/2000/svg" xmlns:xlink="http://www.w3.org/1999/xlink" x="0px" y="0px"
	 viewBox="0 0 768 768" style="enable-background:new 0 0 768 768;" xml:space="preserve">
<style type="text/css">
	.st0{display:none;}
	.st1{display:inline;opacity:0.43;}
	.st2{fill:#FFFFFF;}
	.st3{display:inline;opacity:0.43;fill:#FFFFFF;stroke:#000000;stroke-miterlimit:10;}
	.st4{display:inline;opacity:0.43;fill:none;stroke:#000000;stroke-miterlimit:10;}
	.st5{display:inline;}
	.st6{display:inline;fill:none;stroke:#000000;stroke-miterlimit:10;}
	.st7{display:none;fill:none;stroke:#0000FF;stroke-miterlimit:10;}
	.st8{fill:#111E4B;stroke:#111E4B;stroke-miterlimit:10;}
	.st9{stroke:#000000;stroke-miterlimit:10;}
	.st10{fill:#FFE9D0;stroke:#000000;stroke-miterlimit:10;}
	.st11{fill:none;stroke:#000000;stroke-miterlimit:10;}
	.st12{fill:#FFE9D0;stroke:#FFE9D0;stroke-miterlimit:10;}
	.st13{fill:none;stroke:#0000FF;stroke-miterlimit:10;}
	.st14{fill:#8889C1;stroke:#8889C1;stroke-miterlimit:10;}
	.st15{fill:#8889C1;stroke:#111E4B;stroke-miterlimit:10;}
	.st16{fill:none;stroke:#111E4B;stroke-miterlimit:10;}
	.st17{fill:#111E4B;}
	.st18{fill:#E1F9F9;stroke:#111E4B;stroke-miterlimit:10;}
	.st19{fill:#FFE9D0;stroke:#111E4B;stroke-miterlimit:10;}
	.st20{fill:#FFFFFF;stroke:#FFFFFF;stroke-miterlimit:10;}
	.st21{fill:#8889C1;}
</style>
<g id="Layer_1" class="st0">
	<g class="st1">
		<path class="st2" d="M269.19,546.89c-6.34,0-11.5-5.16-11.5-11.5V407.5c0-6.34,5.16-11.5,11.5-11.5H504
			c6.34,0,11.5,5.16,11.5,11.5v127.89c0,6.34-5.16,11.5-11.5,11.5H269.19z"/>
		<path d="M504,396.5c6.07,0,11,4.93,11,11v127.89c0,6.07-4.93,11-11,11H269.19c-6.07,0-11-4.93-11-11V407.5c0-6.07,4.93-11,11-11
			H504 M504,395.5H269.19c-6.6,0-12,5.4-12,12v127.89c0,6.6,5.4,12,12,12H504c6.6,0,12-5.4,12-12V407.5
			C516,400.9,510.6,395.5,504,395.5L504,395.5z"/>
	</g>
	<g class="st1">
		<ellipse class="st2" cx="382.95" cy="247.87" rx="63.29" ry="69.37"/>
		<path d="M382.95,179c34.62,0,62.79,30.89,62.79,68.87s-28.17,68.87-62.79,68.87s-62.79-30.89-62.79-68.87S348.32,179,382.95,179
			 M382.95,178c-35.23,0-63.79,31.28-63.79,69.87s28.56,69.87,63.79,69.87c35.23,0,63.79-31.28,63.79-69.87S418.18,178,382.95,178
			L382.95,178z"/>
	</g>
	<g class="st1">
		<path d="M312.47,236.11c4.47,0,8.11,6.09,8.11,13.58c0,7.49-3.64,13.58-8.11,13.58s-8.11-6.09-8.11-13.58
			C304.36,242.2,308,236.11,312.47,236.11 M312.47,235.11c-5.03,0-9.11,6.53-9.11,14.58c0,8.05,4.08,14.58,9.11,14.58
			s9.11-6.53,9.11-14.58C321.59,241.64,317.51,235.11,312.47,235.11L312.47,235.11z"/>
	</g>
	<g class="st1">
		<path d="M454.64,236.11c4.47,0,8.11,6.09,8.11,13.58c0,7.49-3.64,13.58-8.11,13.58s-8.11-6.09-8.11-13.58
			C446.52,242.2,450.16,236.11,454.64,236.11 M454.64,235.11c-5.03,0-9.11,6.53-9.11,14.58c0,8.05,4.08,14.58,9.11,14.58
			c5.03,0,9.11-6.53,9.11-14.58C463.75,241.64,459.67,235.11,454.64,235.11L454.64,235.11z"/>
	</g>
	<g class="st1">
		<path d="M382.22,279.63l32.16,55.33h-64.33L382.22,279.63 M382.22,277.64l-33.9,58.32h67.8L382.22,277.64L382.22,277.64z"/>
	</g>
	<g class="st1">
		<path d="M464,327.24c28.12,0,51,22.88,51,51v22.37c0,28.12-22.88,51-51,51H306.76c-28.12,0-51-22.88-51-51v-22.37
			c0-28.12,22.88-51,51-51H464 M464,326.24H306.76c-28.72,0-52,23.28-52,52v22.37c0,28.72,23.28,52,52,52H464
			c28.72,0,52-23.28,52-52v-22.37C516,349.52,492.72,326.24,464,326.24L464,326.24z"/>
	</g>
	<ellipse class="st3" cx="201.29" cy="518.22" rx="16.4" ry="26.12"/>
	
		<ellipse transform="matrix(0.5714 -0.8207 0.8207 0.5714 -310.8023 389.6613)" class="st4" cx="217.66" cy="492.39" rx="23.09" ry="16.4"/>
	<path class="st4" d="M221.02,468.27l19.02,9.56c5.9,2.96,13.15,0.56,16.11-5.33l58.13-115.67c2.96-5.9,0.56-13.15-5.33-16.11
		l-19.02-9.56c-5.9-2.96-13.15-0.56-16.11,5.33l-58.13,115.68C212.72,458.06,215.13,465.31,221.02,468.27z"/>
	<path class="st4" d="M231.21,556.5h-58.63c-6.6,0-12-5.4-12-12v-48.91c0-6.6,5.4-12,12-12h58.63c6.6,0,12,5.4,12,12v48.91
		C243.21,551.1,237.81,556.5,231.21,556.5z"/>
	<path class="st4" d="M475.9,481.91l21.21-1.69c6.58-0.52,11.53-6.33,11.01-12.91l-10.26-129.05c-0.52-6.58-6.33-11.53-12.91-11.01
		l-21.21,1.69c-6.58,0.52-11.53,6.33-11.01,12.91l10.26,129.05C463.51,477.47,469.32,482.43,475.9,481.91z"/>
	<ellipse class="st4" cx="381.5" cy="298.5" rx="96" ry="144"/>
	
		<ellipse transform="matrix(0.6282 -0.7781 0.7781 0.6282 -0.9514 387.6635)" class="st4" cx="405.12" cy="194.83" rx="28.41" ry="57"/>
	<ellipse transform="matrix(0.449 -0.8935 0.8935 0.449 1.3435 414.1787)" class="st4" cx="336.5" cy="206" rx="50.5" ry="12"/>
	<path class="st4" d="M321.5,272c0,30.1,1.34,54.5,3,54.5s1-26.9,1-57s0.66-52-1-52S321.5,241.9,321.5,272z"/>
	<path class="st4" d="M442.34,271.73c0,30.1,1.08,54.5,2.42,54.5c1.34,0,0.81-26.9,0.81-57s0.53-52-0.81-52
		C443.43,217.23,442.34,241.63,442.34,271.73z"/>
</g>
<g id="Layer_2" class="st0">
	<g class="st5">
		<path d="M455.47,249.33c4.47,0,8.11,6.09,8.11,13.58c0,7.49-3.64,13.58-8.11,13.58s-8.11-6.09-8.11-13.58
			C447.36,255.42,450.99,249.33,455.47,249.33 M455.47,248.33c-5.03,0-9.11,6.53-9.11,14.58c0,8.05,4.08,14.58,9.11,14.58
			c5.03,0,9.11-6.53,9.11-14.58C464.58,254.86,460.5,248.33,455.47,248.33L455.47,248.33z"/>
	</g>
	<path class="st6" d="M445.68,206c3.18,3.5,6.82,18.5,8.96,27.61c2.14,9.11,0,24.61,0,24.61s-5.14-2.72-25.14-13.72
		c-7.25-3.99-22.74-12.93-37.83-24.19c-17.17-12.81-32.99-37.08-32.99-37.08s-10.81,30.7-20,43.48
		c-9.19,12.79-13.06,17.74-13.06,17.74"/>
	<path class="st6" d="M442.34,240.9c0,0,0.16,70.6,0,85.34c-0.48,45.57,2.13,10.59,3.17-6.3c0.01-0.16,0.01-0.3,0.02-0.46
		c0.03-4.42,0.48-71.24,1.21-75.53"/>
	<path class="st6" d="M325.5,276.5c0,0,5,16,19.4,27.45c9.75,7.75,16.4,9.66,16.4,9.66l-7.81,12.89l29.45,20.42l28.1-19.69
		l-7.65-13.17c-1.45,1.02,14.71-5.71,23.51-15.57c11.6-13,14.17-22.42,14.95-25.48l0.65-2.52"/>
	<path class="st6" d="M411.05,327.24h44.54c0,0,18.92,0.2,24.84,0.72c6.08,0.54,15.08,3.54,17.74,14.03
		c0.62,2.45,11.26,54.81,11.26,54.81"/>
	<path class="st6" d="M353.97,326.23c0,0-62.47-5.73-68.47,4.54c-2.13,3.64-69.28,122.08-69.28,122.08
		c-1.51,3.08-1.79,6.67-0.55,9.86c0.36,0.93,0.82,1.77,1.42,2.37c2.4,2.41,13.75,8.36,13.75,8.36s12.67,7.84,16.66,5.45
		s7.36-5.54,9.68-8.47"/>
	<path class="st6" d="M220.5,467.5c0,0-18.42,18.2-19.21,24.6c-0.79,6.4-3.21,15.52,0,15.96c3.21,0.44,4.21-12.56,4.21-12.56
		l-1.17,11.72c-0.4,4.02,3.2,7.28,7.16,6.5c1.48-0.29,13.56-8.36,18.59-12.57c1.92-1.6,3.32-3.72,4.03-6.11l5.26-17.48"/>
	<g class="st5">
		<path d="M312.47,248.33c4.47,0,8.11,6.09,8.11,13.58s-3.64,13.58-8.11,13.58s-8.11-6.09-8.11-13.58S307.99,248.33,312.47,248.33
			 M312.47,247.33c-5.03,0-9.11,6.53-9.11,14.58c0,8.05,4.08,14.58,9.11,14.58c5.03,0,9.11-6.53,9.11-14.58
			C321.58,253.86,317.5,247.33,312.47,247.33L312.47,247.33z"/>
	</g>
	<g class="st5">
		<path d="M503.43,396.73c6.07,0,11,4.93,11,11v127.89c0,6.07-4.93,11-11,11H268.62c-6.07,0-11-4.93-11-11V407.73
			c0-6.07,4.93-11,11-11H503.43 M503.43,395.73H268.62c-6.6,0-12,5.4-12,12v127.89c0,6.6,5.4,12,12,12h234.81c6.6,0,12-5.4,12-12
			V407.73C515.43,401.13,510.03,395.73,503.43,395.73L503.43,395.73z"/>
	</g>
	<ellipse class="st6" cx="201.94" cy="518.72" rx="16.4" ry="26.12"/>
	<path class="st6" d="M231.25,556.17h-58.63c-6.6,0-12-5.4-12-12v-48.91c0-6.6,5.4-12,12-12h58.63c6.6,0,12,5.4,12,12v48.91
		C243.25,550.77,237.85,556.17,231.25,556.17z"/>
	<path class="st6" d="M294.5,396.5c0,0,10.63-21.65,13.82-27.83c3.18-6.17,5.74-11.54,5.96-11.86"/>
	<line class="st6" x1="303.61" y1="377.97" x2="323.56" y2="369.56"/>
	<line class="st6" x1="453.45" y1="351.01" x2="460.24" y2="395.73"/>
	<line class="st6" x1="444.51" y1="361.71" x2="456.85" y2="373.76"/>
	<ellipse class="st6" cx="381.5" cy="494" rx="4" ry="14.5"/>
	<ellipse class="st6" cx="381.5" cy="456" rx="4" ry="14.5"/>
	<ellipse class="st6" cx="402" cy="475.5" rx="14.5" ry="4"/>
	<ellipse class="st6" cx="361" cy="475.5" rx="14.5" ry="4"/>
	<path class="st6" d="M432.25,191.25L432.25,191.25c-1.19-0.69-2.73-0.28-3.42,0.92l-18,31.18c-0.69,1.19-0.28,2.73,0.92,3.42l0,0
		c1.19,0.69,2.73,0.28,3.42-0.92l18-31.18C433.85,193.47,433.44,191.93,432.25,191.25z"/>
	<path class="st6" d="M441.81,196.83L441.81,196.83c-1.19-0.69-2.73-0.28-3.42,0.92l-18,31.18c-0.69,1.19-0.28,2.73,0.92,3.42h0
		c1.19,0.69,2.73,0.28,3.42-0.92l18-31.18C443.41,199.05,443,197.52,441.81,196.83z"/>
	<path class="st6" d="M487.5,271c0,18.12,4.96,53.03-1,68.5c-16.31,42.31-60.65,54-102.5,54c-41.93,0-87.23-8.58-103.5-51
		c-5.91-15.42,0-53.47,0-71.5c0-67.65,46.34-122.5,103.5-122.5S487.5,203.35,487.5,271z"/>
	<path class="st6" d="M205.29,511.12"/>
	<line class="st6" x1="186.06" y1="525.3" x2="217.81" y2="525.3"/>
	<line class="st6" x1="201.94" y1="525.3" x2="201.94" y2="544.85"/>
	<path class="st6" d="M326.5,236.5c-1.56-0.55-1.02,72.82-0.08,87.78c2.87,45.48-2.03,10.61-3.23-6.27
		c-0.01-0.16-0.02-0.3-0.02-0.46c-0.07-4.42-1.9-76.76-2.67-81.05"/>
</g>
<g id="skin_and_hair">
	<path class="st7" d="M445.68,206c3.18,3.5,6.82,18.5,8.96,27.61c2.14,9.11,0,24.61,0,24.61s-5.14-2.72-25.14-13.72
		c-7.25-3.99-22.74-12.93-37.83-24.19c-17.17-12.81-32.99-37.08-32.99-37.08s-10.81,30.7-20,43.48s-13.06,17.74-13.06,17.74"/>
</g>
<g id="clotes">
</g>
<g id="laptop">
</g>
<g id="Layer_6">
	<g>
		<path class="st8" d="M210.01,723.17h-89.76c-6.6,0-12-5.4-12-12v-72.97c0-6.6,5.4-12,12-12h89.76c6.6,0,12,5.4,12,12v72.97
			C222.01,717.77,216.61,723.17,210.01,723.17z"/>
		<g>
			<path class="st9" d="M558.28,343.88c0,24.1,6.83,70.53-1.38,91.11c-22.45,56.27-83.49,71.82-141.12,71.82
				c-57.72,0-120.1-11.41-142.49-67.83c-8.14-20.51,0-71.11,0-95.1c0-89.98,63.8-162.93,142.49-162.93S558.28,253.9,558.28,343.88z"
				/>
			<ellipse class="st10" cx="512.81" cy="331.79" rx="12.55" ry="19.39"/>
			<path class="st10" d="M335.25,351.2c0,0,6.88,21.28,26.72,36.52c13.42,10.31,22.59,12.84,22.59,12.84L373.8,417.7l40.54,27.16
				l38.69-26.18l-10.54-17.52c-2,1.36,20.25-7.59,32.37-20.71c15.96-17.29,19.5-29.82,20.58-33.89l0.89-3.35"/>
			<path class="st11" d="M453.03,418.68h61.32c0,0,26.04,0.26,34.19,0.96c8.37,0.72,20.76,4.71,24.42,18.67
				c0.86,3.26,15.51,72.9,15.51,72.9"/>
			<path class="st11" d="M374.45,417.34c0,0-86.01-7.63-94.27,6.03c-2.93,4.84-95.39,162.37-95.39,162.37
				c-2.08,4.09-2.46,8.87-0.75,13.12c0.49,1.23,1.13,2.35,1.96,3.16c3.31,3.21,18.94,11.12,18.94,11.12s17.45,10.43,22.94,7.25
				s10.14-7.37,13.32-11.26"/>
			<path class="st10" d="M190.69,605.23c0,0-25.35,24.21-26.44,32.72c-1.09,8.51-4.42,20.65,0,21.23
				c4.42,0.58,5.79-16.71,5.79-16.71l-1.61,15.59c-0.55,5.35,4.4,9.68,9.86,8.64c2.03-0.39,18.66-11.12,25.59-16.72
				c2.64-2.13,4.56-4.95,5.56-8.13l7.25-23.26"/>
			<ellipse class="st10" cx="317.31" cy="331.79" rx="12.55" ry="19.39"/>
			<path class="st11" d="M292.57,510.8c0,0,14.64-28.8,19.02-37.01c4.38-8.21,7.9-15.35,8.2-15.77"/>
			<line class="st11" x1="305.11" y1="486.15" x2="332.58" y2="474.97"/>
			<line class="st11" x1="511.41" y1="450.29" x2="520.75" y2="509.77"/>
			<line class="st11" x1="499.09" y1="464.53" x2="516.08" y2="480.56"/>
			<path class="st11" d="M169.75,663.24"/>
			<path class="st12" d="M353.15,359.18l-19.27-10.64l-1.38-51.87l-15.14-31.92l83.98-31.92l85.36,55.86
				c12.49,14.65,13.97,83.75-6.88,62.51C477.91,349.27,353.15,359.18,353.15,359.18z"/>
			<path d="M496.11,303.84c0,0,0.21,93.9,0,113.5c-0.66,60.61,2.93,14.08,4.36-8.39c0.01-0.21,0.02-0.4,0.02-0.61
				c0.04-5.88,0.66-94.75,1.67-100.46"/>
			<path class="st9" d="M336.62,297.99c-2.14-0.73-1.41,96.86-0.11,116.75c3.95,60.5-2.79,14.11-4.44-8.34
				c-0.02-0.21-0.02-0.4-0.03-0.61c-0.1-5.88-2.61-102.1-3.68-107.79"/>
			<path class="st13" d="M335.42,308.57"/>
			<path d="M398.58,223.51c-4,8.41-8.96,17.39-15.14,26.6c-19.29,28.72-42.52,47.79-60.58,59.85l-6.88-57.19L398.58,223.51z"/>
			<path class="st9" d="M377.93,222.18c31.7,41.38,75.8,82.65,136.3,107.73c4.61,1.91,9.2,3.68,13.77,5.32"/>
			<polyline class="st9" points="525.35,335.24 514.35,271.92 378.95,223.51 			"/>
			<path class="st14" d="M482.22,237.8L482.22,237.8c-1.64-0.91-3.76-0.37-4.7,1.22l-24.78,41.47c-0.95,1.58-0.38,3.63,1.26,4.54
				l0,0c1.64,0.91,3.76,0.37,4.7-1.22l24.78-41.47C484.42,240.76,483.86,238.72,482.22,237.8z"/>
			<path class="st14" d="M495.37,245.23L495.37,245.23c-1.64-0.91-3.76-0.37-4.7,1.22l-24.78,41.47c-0.95,1.58-0.38,3.63,1.26,4.54
				l0,0c1.64,0.91,3.76,0.37,4.7-1.22l24.78-41.47C497.58,248.19,497.01,246.14,495.37,245.23z"/>
			<path class="st15" d="M588.57,512.13c0,0-14.75-70.57-15.61-73.82c-3.66-13.96-16.06-17.95-24.42-18.67
				c-8.15-0.7-34.19-0.96-34.19-0.96h-61.32"/>
			<path class="st11" d="M361.96,387.71c13.42,10.31,22.59,12.84,22.59,12.84L373.8,417.7l40.54,27.16l38.69-26.18l-10.54-17.52
				c-2,1.36,20.25-7.59,32.37-20.71"/>
			<path class="st11" d="M190.69,605.23c0,0-25.35,24.21-26.44,32.72c-1.09,8.51-4.42,20.65,0,21.23
				c4.42,0.58,5.79-16.71,5.79-16.71l-1.61,15.59c-0.55,5.35,4.4,9.68,9.86,8.64c2.03-0.39,18.66-11.12,25.59-16.72
				c2.64-2.13,4.56-4.95,5.56-8.13l7.25-23.26"/>
			<path class="st11" d="M169.75,663.24"/>
			<polygon class="st14" points="351.77,534.74 276.05,521.44 318.85,434.76 373.8,417.7 413.72,444.3 452.27,419.03 559.23,484.41 
				584.44,504.15 588.47,518.11 			"/>
			<path class="st15" d="M374.45,417.34c0,0-86.01-7.63-94.27,6.03c-2.93,4.84-95.39,162.37-95.39,162.37
				c-2.08,4.09-2.46,8.87-0.75,13.12c0.49,1.23,1.13,2.35,1.96,3.16c3.31,3.21,18.94,11.12,18.94,11.12s17.45,10.43,22.94,7.25
				s10.14-7.37,13.32-11.26"/>
			<path class="st16" d="M292.57,510.8c0,0,14.64-28.8,19.02-37.01c4.38-8.21,7.9-15.35,8.2-15.77"/>
			<line class="st16" x1="305.11" y1="486.15" x2="332.58" y2="474.97"/>
			<line class="st16" x1="511.41" y1="450.29" x2="520.75" y2="509.77"/>
			<line class="st16" x1="499.09" y1="464.91" x2="516.98" y2="488.19"/>
			<path class="st11" d="M380.94,227.14"/>
			<g>
				<path class="st17" d="M252.42,711.29c-6.34,0-11.5-5.16-11.5-11.5V521.77c0-6.34,5.16-11.5,11.5-11.5h332.32
					c6.34,0,11.5,5.16,11.5,11.5v178.02c0,6.34-5.16,11.5-11.5,11.5H252.42z"/>
				<path class="st17" d="M584.74,510.77c6.07,0,11,4.93,11,11v178.01c0,6.07-4.93,11-11,11H252.42c-6.07,0-11-4.93-11-11V521.77
					c0-6.07,4.93-11,11-11H584.74 M584.74,509.77H252.42c-6.6,0-12,5.4-12,12v178.01c0,6.6,5.4,12,12,12h332.32c6.6,0,12-5.4,12-12
					V521.77C596.74,515.17,591.34,509.77,584.74,509.77L584.74,509.77z"/>
			</g>
			<ellipse class="st15" cx="165.22" cy="672.63" rx="22.72" ry="35.65"/>
			<path class="st11" d="M169.75,663.24"/>
			<ellipse class="st14" cx="415.1" cy="645.8" rx="5.51" ry="19.29"/>
			<ellipse class="st14" cx="415.1" cy="595.26" rx="5.51" ry="19.29"/>
			<path class="st9" d="M336.51,302.49c-2.14-0.73-1.41,96.86-0.11,116.75c3.95,60.5-2.79,14.11-4.44-8.34
				c-0.02-0.21-0.02-0.4-0.03-0.61c-0.1-5.88-2.61-102.1-3.68-107.79"/>
			<ellipse class="st14" cx="443.32" cy="621.19" rx="19.96" ry="5.32"/>
			<polyline class="st16" points="374.45,417.34 413.04,443.85 452.27,417.7 			"/>
			<ellipse class="st14" cx="386.88" cy="621.19" rx="19.96" ry="5.32"/>
			<line class="st18" x1="165.13" y1="682.12" x2="165.13" y2="708.11"/>
			<line class="st18" x1="143.27" y1="682.12" x2="186.99" y2="682.12"/>
			<path class="st19" d="M190.69,605.23c0,0-25.35,24.21-26.44,32.72c-1.09,8.51-4.42,20.65,0,21.23
				c4.42,0.58,5.79-16.71,5.79-16.71l-1.61,15.59c-0.55,5.35,4.4,9.68,9.86,8.64c2.03-0.39,18.66-11.12,25.59-16.72
				c2.64-2.13,4.56-4.95,5.56-8.13l7.25-23.26"/>
			<path d="M496,309.37c0,0,0.21,93.9,0,113.5c-0.66,60.61,2.93,14.08,4.36-8.39c0.01-0.21,0.02-0.4,0.02-0.61
				c0.04-5.88,0.66-94.75,1.67-100.46"/>
			<ellipse class="st9" cx="374.49" cy="321.93" rx="10.33" ry="13.3"/>
			<ellipse class="st20" cx="374.26" cy="322.19" rx="4.33" ry="5.58"/>
			<ellipse class="st9" cx="451.97" cy="321.4" rx="10.33" ry="13.3"/>
			<ellipse class="st20" cx="451.74" cy="321.66" rx="4.33" ry="5.58"/>
			<path class="st11" d="M383.43,367.16c1.22,1.7,11.08,14.93,28.91,15.96c13.65,0.79,26.83-5.87,34.42-17.29"/>
			<g>
				<path class="st21" d="M624.09,228.62l16.17-20.31l-9.53-5.31l3.96-6.62l10.57,5.9l11.93-15.04l-9.99-5.57l3.96-6.62l11.04,6.16
					l15.83-19.75l6.74,3.76L669.05,185l12.08,6.74l15.83-19.75l6.86,3.82l-15.72,19.82l9.53,5.31l-3.96,6.62l-10.57-5.9
					l-11.82,15.11l9.99,5.57l-3.96,6.62l-11.04-6.16l-16.17,20.31l-6.97-3.89l16.17-20.31l-12.08-6.74l-16.17,20.31L624.09,228.62z
					 M664.32,212.89l11.93-15.04l-12.08-6.74l-11.93,15.04L664.32,212.89z"/>
			</g>
			<g>
				<path class="st21" d="M579.17,351.18l3.44-2.82c-1.65-1.94-2.77-4.42-2.93-6.27l2.98-1.08c0.22,1.86,1.08,4.1,2.7,5.94
					c2.05,2.34,4.84,2.77,6.78,1.18c1.88-1.54,1.9-3.77,0.79-7.05c-1.59-4.48-1.84-7.84,1.12-10.27c2.83-2.32,6.68-2.14,9.86,0.47
					l3.44-2.82l1.79,2.04l-3.31,2.71c1.67,2.03,2.31,3.83,2.57,5.26l-2.97,1.02c-0.2-1.03-0.64-2.99-2.49-5.1
					c-2.23-2.54-4.64-2.2-6-1.09c-1.77,1.45-1.59,3.4-0.3,7.27c1.55,4.57,1.28,7.73-1.75,10.22c-2.69,2.21-6.81,2.47-10.37-0.45
					l-3.54,2.91L579.17,351.18z"/>
			</g>
			<g>
				<path class="st21" d="M201.51,317.22c-3.32-0.62-6.53-1.31-11.21-2.36c-2.24,9.38-7.4,16.11-15.11,21.14
					c-13.65,8.91-27.76,5.21-34.87-4.95c-6.47-9.26-5.18-19.34-0.11-28.8l-0.21-0.3c-6.74-2.05-12.38-5.56-15.76-10.39
					c-5.77-8.25-5.54-20.72,6.13-28.33c8.75-5.71,19.46-4.49,25.59,4.26c5,7.15,4.67,15.57-2.75,28.18l0.21,0.3
					c10.58,2.77,22.46,5.87,30.32,7.77c-0.08-6.84-2.46-14.81-7.09-24.25l8.33-5.44c5.58,11.89,8.47,22.32,7.42,31.66
					c6.43,1.38,12.75,2.82,19.94,4.43L201.51,317.22z M132.02,285.32c3.38,4.83,8.27,7.06,13.83,8.71
					c4.34-8.55,6.39-15.16,2.38-20.9c-2.89-4.13-8.52-7.19-14.25-3.46C128.15,273.48,128.36,280.08,132.02,285.32z M182.3,312.75
					c-7.26-1.71-20.85-4.86-34.71-8.42c-2.13,4.76-4.42,12.56,0.58,19.7c5.42,7.75,15.51,9.81,23.95,4.31
					C178.16,324.4,181.43,318.45,182.3,312.75z"/>
			</g>
			<g>
				<path class="st21" d="M681.21,315.51l-10.31,13.11v0.21l16.39-2.1v7.13l-16.39-1.89v0.21l10.42,12.58l-6.84,3.77l-6.51-14.68
					h-0.22l-7.05,14.79l-6.19-3.77l10.31-12.79v-0.21l-16.06,1.99v-7.13l15.96,1.99v-0.21l-10.2-12.79l6.62-3.67l6.73,14.58h0.22
					l6.62-14.68L681.21,315.51z"/>
			</g>
			<g>
				<path class="st21" d="M224.87,118.05c0,14.88-8.89,22.26-19.27,22.26c-10.01,0-18.65-7.06-18.78-21.28
					c0-14.12,8.77-22.04,19.4-22.04C217.46,96.99,224.87,104.59,224.87,118.05z M195.47,118.7c-0.25,9.01,3.58,15.85,10.38,15.85
					c7.17,0,10.38-6.73,10.38-16.07c0-8.58-2.84-15.74-10.38-15.74C199.05,102.74,195.47,109.8,195.47,118.7z M204.86,169.96
					l47.19-72.97h6.92l-47.19,72.97H204.86z M277.12,147.26c0,14.88-8.89,22.26-19.15,22.26c-10.01,0-18.65-7.06-18.78-21.17
					c0-14.22,8.77-22.15,19.4-22.15C269.84,126.2,277.12,133.8,277.12,147.26z M247.72,147.91c-0.12,9.01,3.83,15.85,10.5,15.85
					c7.17,0,10.38-6.73,10.38-16.07c0-8.58-2.84-15.74-10.38-15.74C251.43,131.95,247.72,139.01,247.72,147.91z"/>
			</g>
			<g>
				<path class="st21" d="M344.44,167.14c-2.7,1.38-5.45,1.9-8.73,1.9c-8.05,0-14.87-5.69-14.87-14.79
					c0-9.77,7.02-18.21,17.91-18.21c8.54,0,14.28,5.78,14.28,13.7c0,7.11-4.12,11.28-8.73,11.28c-1.96,0-3.78-1.28-3.63-4.17h-0.2
					c-1.72,2.8-3.97,4.17-6.92,4.17c-2.85,0-5.3-2.23-5.3-5.97c0-5.88,4.81-11.24,11.63-11.24c2.11,0,3.98,0.43,5.25,1l-1.67,8.58
					c-0.74,3.6-0.15,5.26,1.47,5.31c2.5,0.05,5.3-3.18,5.3-8.68c0-6.87-4.27-11.8-11.88-11.8c-8,0-14.72,6.12-14.72,15.74
					c0,7.92,5.35,12.8,12.61,12.8c2.8,0,5.4-0.57,7.41-1.66L344.44,167.14z M341.74,146.66c-0.49-0.14-1.33-0.33-2.45-0.33
					c-4.32,0-7.8,3.94-7.8,8.53c0,2.09,1.08,3.6,3.24,3.6c2.85,0,5.45-3.51,5.99-6.45L341.74,146.66z"/>
			</g>
			<g>
				<path class="st21" d="M395.76,95.19c2.66,3.46,7.1,7.21,12.53,9.31c8.06,3.11,14.47,0.82,16.94-5.13
					c2.28-5.51,0.33-9.92-6.65-16.17c-8.55-7.26-12.64-14.63-9.2-22.94c3.8-9.19,14.51-12.97,26.37-8.38
					c6.25,2.42,10.2,5.57,12.3,8.1l-4.75,5.37c-1.56-1.82-4.91-5.15-10.43-7.28c-8.33-3.22-13.49,0.37-15.16,4.39
					c-2.28,5.51,0.31,9.66,7.43,16.06c8.73,7.84,11.99,14.68,8.4,23.34c-3.77,9.1-14,14.28-28.4,8.71
					c-5.89-2.27-11.63-6.42-14.02-9.78L395.76,95.19z"/>
			</g>
			<g>
				<path class="st21" d="M515.89,137.96l22.57-25.13l1.69,4.08L521,137.77l0.05,0.12l28.76,2.34l1.69,4.08l-34.29-3.16
					L515.89,137.96z"/>
			</g>
			<g>
				<path class="st21" d="M219.71,280.32l1.06-3.38l17.4,5.12l-1.06,3.38L219.71,280.32z M223.19,269.29l1.07-3.38l17.4,5.12
					l-1.07,3.38L223.19,269.29z"/>
			</g>
			<g>
				<path class="st21" d="M245.6,380.24l-22.73,31.88l-2.51-4.51l19.52-26.68l-0.07-0.13l-33.8,1.05l-2.51-4.51l40.06-0.77
					L245.6,380.24z"/>
			</g>
			<g>
				<path class="st21" d="M141.75,187.64c-1.1-2.38,0.07-4.89,2.72-6.03c2.8-1.21,5.36-0.31,6.46,2.07
					c1.04,2.25,0.05,4.75-2.75,5.96C145.46,190.82,142.79,189.89,141.75,187.64z M154.06,222.94c-0.04-4.53-1.12-12.31-2.43-17.37
					l7.25-3.9c0.66,6.27,0.54,14.87-0.25,18.83L154.06,222.94z"/>
			</g>
			<g>
				<path class="st21" d="M572.41,182.88c6.48,3.62,9.45,0.69,11.3-2.4c1.48-2.47,2.59-5.14,3.7-7.82s2.17-5.26,3.64-7.73
					c4.85-8.11,12.38-8.5,20.14-4.17l1.92,1.07l-2.9,4.85l-1.64-0.92c-5.39-3-8.9-1.2-11.75,3.56c-1.21,2.03-2.2,4.3-3.1,6.62
					c-0.95,2.41-1.94,4.68-3.37,7.06c-3.28,5.7-7.53,7.09-12.27,5.86l-0.11,0.18c3.53,3.26,4.29,7.69,0.83,13.28
					c-1.42,2.38-3.02,4.43-4.64,6.35c-1.68,2-3.17,3.88-4.43,6c-2.95,4.94-2.49,8.84,2.63,11.7l1.64,0.92l-2.9,4.85l-1.92-1.07
					c-7.58-4.23-11.34-10.56-6.02-19.47c1.42-2.38,3.27-4.65,5.05-6.83c1.79-2.18,3.58-4.36,5-6.74c1.63-2.73,2.99-7.04-3.5-10.65
					L572.41,182.88z"/>
			</g>
			<g>
				<path class="st21" d="M689.56,412.07c-4.45-3.02-6.97-0.85-8.34,1.03c-1.19,1.63-2.13,3.44-3.07,5.24
					c-0.94,1.8-1.92,3.67-3.12,5.3c-4.45,6.11-9.99,5.61-15.12,2.12l-1.32-0.9l2.42-3.33l1.07,0.72c3.55,2.33,6.38,1.53,8.85-1.86
					c1.06-1.45,1.82-3.01,2.73-4.66c0.81-1.62,1.66-3.31,2.85-4.94c2.82-3.87,6.07-4.74,9.32-3.53l0.09-0.12
					c-2.23-2.6-2.57-5.73,0.25-9.6c1.19-1.63,2.5-2.92,3.85-4.26c1.25-1.32,2.56-2.61,3.57-4c2.38-3.27,2.43-6.04-1.16-8.57
					l-1.13-0.77l2.42-3.33l1.25,0.85c5.33,3.62,7.43,8.58,3.37,14.15c-1.23,1.7-2.67,3.16-4.16,4.68c-1.49,1.52-2.97,3.05-4.21,4.74
					c-1.54,2.12-2.64,4.9,1.81,7.93L689.56,412.07z"/>
			</g>
			<g>
				<path class="st21" d="M82.17,361.58l4.15-3.4l-1.39-2.07c-3.02-4.42-5.27-10.59,0.39-15.23c1.29-0.99,2.51-1.57,3.38-1.73
					l1.61,3.14c-0.84,0.27-1.7,0.69-2.54,1.38c-2.85,2.34-1.79,6,0.5,9.27l1.6,2.31l5.03-4.13l2.24,2.55l-5.36,4.4l6.29,9.13
					c3.92,5.77,5.33,10.75,0.43,14.77c-1.38,1.13-2.81,1.81-3.84,2.03l-1.57-3.1c1-0.26,1.86-0.76,2.74-1.48
					c2.6-2.13,1.6-5.15-1.52-9.69l-6.05-8.77l-3.86,3.16L82.17,361.58z"/>
			</g>
			<g>
				<path class="st21" d="M183.42,430.11c0,14.54-11.55,26.21-26.34,26.21c-14.87,0-26.6-11.67-26.6-26.21
					c0-14.37,11.72-26.04,26.6-26.04C171.87,404.07,183.42,415.73,183.42,430.11z M134.86,430.36c0,12.6,9.62,22.49,22.22,22.49
					c12.34,0,21.96-9.89,21.96-22.74c0-12.6-9.62-22.57-21.96-22.57C144.49,407.54,134.86,417.51,134.86,430.36z M167.76,420.47
					c-1.14-0.59-4.38-1.94-8.49-1.94c-8.22,0-12.25,5.07-12.25,11.83c0,6.59,4.29,11.92,12.34,11.92c3.5,0,6.82-0.93,8.84-2.2
					l1.05,3.21c-3.06,1.94-7.09,2.62-10.76,2.62c-10.15,0-16.01-6.76-16.01-15.3c0-9.64,7.87-15.72,16.71-15.72
					c4.55,0,8.49,1.27,9.62,2.28L167.76,420.47z"/>
			</g>
			<g>
				<path class="st21" d="M604.11,403.54c-3.66,1.1-7.54,2.38-11.35,0.44c-3.95-2.01-5.24-6.26-3.11-10.16
					c1.95-3.59,6.67-5.2,10.81-3.09c3.48,1.77,4.61,5.76,5.68,9.09c3.66-1.1,7.54-2.38,11.35-0.44c4,2.03,5.24,6.26,3.11,10.16
					c-1.95,3.59-6.67,5.2-10.81,3.09C606.31,410.86,605.18,406.87,604.11,403.54z M603.25,400.72c-0.94-2.57-1.59-5.91-4.31-7.29
					c-2.35-1.19-5.15-0.24-6.31,1.9c-1.26,2.32-0.48,4.86,1.82,6.03C597.12,402.72,600.49,401.59,603.25,400.72z M617.64,408.03
					c1.26-2.32,0.48-4.86-1.82-6.03c-2.68-1.36-6.06-0.23-8.81,0.63c0.95,2.57,1.59,5.91,4.32,7.29
					C613.68,411.12,616.48,410.17,617.64,408.03z"/>
			</g>
		</g>
	</g>
	<g>
	</g>
	<g>
	</g>
	<g>
	</g>
	<g>
	</g>
	<g>
	</g>
	<g>
	</g>
	<g>
	</g>
	<g>
	</g>
	<g>
	</g>
	<g>
	</g>
	<g>
	</g>
	<g>
	</g>
	<g>
	</g>
	<g>
	</g>
	<g>
	</g>
</g>
</svg>
